<svg xmlns="http://www.w3.org/2000/svg" xmlns:xlink="http://www.w3.org/1999/xlink" width="500" zoomAndPan="magnify" viewBox="0 0 375 374.999991" height="500" preserveAspectRatio="xMidYMid meet" version="1.0"><defs><g/></defs><g fill="#4f46e5" fill-opacity="0.302"><g transform="translate(0.0278732, 324.018964)"><g><path d="M 0 -23.515625 L 0 -188.15625 L 141.125 -188.15625 L 141.125 -164.640625 L 164.640625 -164.640625 L 164.640625 -94.078125 L 141.125 -94.078125 L 141.125 -70.5625 L 47.046875 -70.5625 L 47.046875 -23.515625 Z M 47.046875 -94.078125 L 117.59375 -94.078125 L 117.59375 -164.640625 L 47.046875 -164.640625 Z M 47.046875 -94.078125 "/></g></g></g><g fill="#4f46e5" fill-opacity="0.502"><g transform="translate(10.825544, 317.784926)"><g><path d="M 0 -23.515625 L 0 -188.15625 L 141.125 -188.15625 L 141.125 -164.640625 L 164.640625 -164.640625 L 164.640625 -94.078125 L 141.125 -94.078125 L 141.125 -70.5625 L 47.046875 -70.5625 L 47.046875 -23.515625 Z M 47.046875 -94.078125 L 117.59375 -94.078125 L 117.59375 -164.640625 L 47.046875 -164.640625 Z M 47.046875 -94.078125 "/></g></g></g><g fill="#4f46e5" fill-opacity="1"><g transform="translate(21.623215, 311.550888)"><g><path d="M 0 -23.515625 L 0 -188.15625 L 141.125 -188.15625 L 141.125 -164.640625 L 164.640625 -164.640625 L 164.640625 -94.078125 L 141.125 -94.078125 L 141.125 -70.5625 L 47.046875 -70.5625 L 47.046875 -23.515625 Z M 47.046875 -94.078125 L 117.59375 -94.078125 L 117.59375 -164.640625 L 47.046875 -164.640625 Z M 47.046875 -94.078125 "/></g></g></g><g fill="#4f46e5" fill-opacity="0.302"><g transform="translate(188.227614, 324.018964)"><g><path d="M 47.046875 -23.515625 L 47.046875 -47.046875 L 23.515625 -47.046875 L 23.515625 -70.5625 L 0 -70.5625 L 0 -141.125 L 23.515625 -141.125 L 23.515625 -164.640625 L 47.046875 -164.640625 L 47.046875 -188.15625 L 141.125 -188.15625 L 141.125 -164.640625 L 164.640625 -164.640625 L 164.640625 -141.125 L 117.59375 -141.125 L 117.59375 -164.640625 L 70.5625 -164.640625 L 70.5625 -141.125 L 47.046875 -141.125 L 47.046875 -70.5625 L 70.5625 -70.5625 L 70.5625 -47.046875 L 117.59375 -47.046875 L 117.59375 -70.5625 L 164.640625 -70.5625 L 164.640625 -47.046875 L 141.125 -47.046875 L 141.125 -23.515625 Z M 47.046875 -23.515625 "/></g></g></g><g fill="#4f46e5" fill-opacity="0.502"><g transform="translate(199.025286, 317.784926)"><g><path d="M 47.046875 -23.515625 L 47.046875 -47.046875 L 23.515625 -47.046875 L 23.515625 -70.5625 L 0 -70.5625 L 0 -141.125 L 23.515625 -141.125 L 23.515625 -164.640625 L 47.046875 -164.640625 L 47.046875 -188.15625 L 141.125 -188.15625 L 141.125 -164.640625 L 164.640625 -164.640625 L 164.640625 -141.125 L 117.59375 -141.125 L 117.59375 -164.640625 L 70.5625 -164.640625 L 70.5625 -141.125 L 47.046875 -141.125 L 47.046875 -70.5625 L 70.5625 -70.5625 L 70.5625 -47.046875 L 117.59375 -47.046875 L 117.59375 -70.5625 L 164.640625 -70.5625 L 164.640625 -47.046875 L 141.125 -47.046875 L 141.125 -23.515625 Z M 47.046875 -23.515625 "/></g></g></g><g fill="#d9d9d9" fill-opacity="1"><g transform="translate(209.822957, 311.550888)"><g><path d="M 47.046875 -23.515625 L 47.046875 -47.046875 L 23.515625 -47.046875 L 23.515625 -70.5625 L 0 -70.5625 L 0 -141.125 L 23.515625 -141.125 L 23.515625 -164.640625 L 47.046875 -164.640625 L 47.046875 -188.15625 L 141.125 -188.15625 L 141.125 -164.640625 L 164.640625 -164.640625 L 164.640625 -141.125 L 117.59375 -141.125 L 117.59375 -164.640625 L 70.5625 -164.640625 L 70.5625 -141.125 L 47.046875 -141.125 L 47.046875 -70.5625 L 70.5625 -70.5625 L 70.5625 -47.046875 L 117.59375 -47.046875 L 117.59375 -70.5625 L 164.640625 -70.5625 L 164.640625 -47.046875 L 141.125 -47.046875 L 141.125 -23.515625 Z M 47.046875 -23.515625 "/></g></g></g></svg>