<svg xmlns="http://www.w3.org/2000/svg" xmlns:xlink="http://www.w3.org/1999/xlink" width="500" zoomAndPan="magnify" viewBox="0 0 375 374.999991" height="500" preserveAspectRatio="xMidYMid meet" version="1.0"><defs><g/></defs><g fill="#4f46e5" fill-opacity="0.302"><g transform="translate(162.428123, 193.537444)"><g><path d="M 0 -3.75 L 0 -30 L 22.5 -30 L 22.5 -26.25 L 26.25 -26.25 L 26.25 -15 L 22.5 -15 L 22.5 -11.25 L 7.5 -11.25 L 7.5 -3.75 Z M 7.5 -15 L 18.75 -15 L 18.75 -26.25 L 7.5 -26.25 Z M 7.5 -15 "/></g></g></g><g fill="#4f46e5" fill-opacity="0.502"><g transform="translate(164.149331, 192.543707)"><g><path d="M 0 -3.75 L 0 -30 L 22.5 -30 L 22.5 -26.25 L 26.25 -26.25 L 26.25 -15 L 22.5 -15 L 22.5 -11.25 L 7.5 -11.25 L 7.5 -3.75 Z M 7.5 -15 L 18.75 -15 L 18.75 -26.25 L 7.5 -26.25 Z M 7.5 -15 "/></g></g></g><g fill="#4f46e5" fill-opacity="1"><g transform="translate(165.870536, 191.549973)"><g><path d="M 0 -3.75 L 0 -30 L 22.5 -30 L 22.5 -26.25 L 26.25 -26.25 L 26.25 -15 L 22.5 -15 L 22.5 -11.25 L 7.5 -11.25 L 7.5 -3.75 Z M 7.5 -15 L 18.75 -15 L 18.75 -26.25 L 7.5 -26.25 Z M 7.5 -15 "/></g></g></g><g fill="#4f46e5" fill-opacity="0.302"><g transform="translate(192.428121, 193.537444)"><g><path d="M 7.5 -3.75 L 7.5 -7.5 L 3.75 -7.5 L 3.75 -11.25 L 0 -11.25 L 0 -22.5 L 3.75 -22.5 L 3.75 -26.25 L 7.5 -26.25 L 7.5 -30 L 22.5 -30 L 22.5 -26.25 L 26.25 -26.25 L 26.25 -22.5 L 18.75 -22.5 L 18.75 -26.25 L 11.25 -26.25 L 11.25 -22.5 L 7.5 -22.5 L 7.5 -11.25 L 11.25 -11.25 L 11.25 -7.5 L 18.75 -7.5 L 18.75 -11.25 L 26.25 -11.25 L 26.25 -7.5 L 22.5 -7.5 L 22.5 -3.75 Z M 7.5 -3.75 "/></g></g></g><g fill="#4f46e5" fill-opacity="0.502"><g transform="translate(194.149329, 192.543707)"><g><path d="M 7.5 -3.75 L 7.5 -7.5 L 3.75 -7.5 L 3.75 -11.25 L 0 -11.25 L 0 -22.5 L 3.75 -22.5 L 3.75 -26.25 L 7.5 -26.25 L 7.5 -30 L 22.5 -30 L 22.5 -26.25 L 26.25 -26.25 L 26.25 -22.5 L 18.75 -22.5 L 18.75 -26.25 L 11.25 -26.25 L 11.25 -22.5 L 7.5 -22.5 L 7.5 -11.25 L 11.25 -11.25 L 11.25 -7.5 L 18.75 -7.5 L 18.75 -11.25 L 26.25 -11.25 L 26.25 -7.5 L 22.5 -7.5 L 22.5 -3.75 Z M 7.5 -3.75 "/></g></g></g><g fill="#d9d9d9" fill-opacity="1"><g transform="translate(195.870534, 191.549973)"><g><path d="M 7.5 -3.75 L 7.5 -7.5 L 3.75 -7.5 L 3.75 -11.25 L 0 -11.25 L 0 -22.5 L 3.75 -22.5 L 3.75 -26.25 L 7.5 -26.25 L 7.5 -30 L 22.5 -30 L 22.5 -26.25 L 26.25 -26.25 L 26.25 -22.5 L 18.75 -22.5 L 18.75 -26.25 L 11.25 -26.25 L 11.25 -22.5 L 7.5 -22.5 L 7.5 -11.25 L 11.25 -11.25 L 11.25 -7.5 L 18.75 -7.5 L 18.75 -11.25 L 26.25 -11.25 L 26.25 -7.5 L 22.5 -7.5 L 22.5 -3.75 Z M 7.5 -3.75 "/></g></g></g></svg>